{"title":"Mikio Naruse - Autumn Has Already Started (1960)","uid":11113323,"size":1201350920,"categoryP":"video","categoryS":"movies","magnet":"?xt=urn:btih:3fcb2a0d26bdf049e379e303fc53ab27acffa160&amp;dn=Mikio+Naruse+-+Autumn+Has+Already+Started+%281960%29&amp;tr=udp%3A%2F%2Ftracker.openbittorrent.com%3A80&amp;tr=udp%3A%2F%2Fopen.demonii.com%3A1337&amp;tr=udp%3A%2F%2Ftracker.coppersurfer.tk%3A6969&amp;tr=udp%3A%2F%2Fexodus.desync.com%3A6969","seeders":1,"leechers":0,"uploader":"rpessoa","files":1,"time":1411832235,"description":"Shigeko, a recently widowed mother from Nagano,brings Hideo,her sixth-grade son,to live with his uncle in Tokiyo.Shigeko soon gets a job at the Mishima hotel.The shy Hideo doesnÂ´t respond wellto his newsurroundings,preferring the companyof hisKabutomushi (helmet  beetle ) to that of other people.He does,however,meet Junko,daughter of the woman who runs the Mishima and the two become goods friends.JunkoÂ´s mother has a patron who supports her and one day he comes to the city with his legitimate family. Junko feels inferior to his real children.Hideo too experiences the sorrow ot wathching his mother Shigeko prepare to go out with one of her patrons (Tomioka).Meanwhile,his beetle disappears and he depends more and more on Juko for companionship.hideoÂ´s aunt sends him a replacement beetle.Elated,he runs to tell Junko,only to discover that she has left Tokyo and the Mishima has been sold.Saddened,Hideo brings his beetle to the roof of a building and looks out on the Tokyo skyline.\n &lt;a href=&quot;\nhttp://www.imdb.com/title/tt0053578/&quot; rel=&quot;nofollow&quot; target=&quot;_NEW&quot;&gt;\nhttp://www.imdb.com/title/tt0053578/&lt;/a&gt;\n\nGeneral\nUnique ID                                : 175761400676587451956251543448495131392 (0x843A6A1A4015BDC7BCE4B44E1D710B00)\nComplete name                            : Aki.tachinu.aka.Autumn.Has.Already.Started (1960).mkv\nFormat                                   : Matroska\nFormat version                           : Version 4 / Version 2\nFile size                                : 1.12 GiB\nDuration                                 : 1h 19mn\nOverall bit rate                         : 2 015 Kbps\nEncoded date                             : UTC 2014-09-10 09:52:56\nWriting application                      : mkvmerge v6.1.0 ('Old Devil') built on Mar  2 2013 14:32:37\nWriting library                          : libebml v1.3.0 + libmatroska v1.4.0\n\nVideo\nID                                       : 1\nFormat                                   : AVC\nFormat/Info                              : Advanced Video Codec\nFormat profile                           : &lt;a class=&quot;__cf_email__&quot; href=&quot;/cdn-cgi/l/email-protection&quot; data-cfemail=&quot;c981a0aea18985fae7f8&quot;&gt;[email&amp;#160;protected]&lt;/a&gt;&lt;script data-cfhash='f9e31' type=&quot;text/javascript&quot;&gt;\n/* &lt;![CDATA[ */!function(){try{var t=&quot;currentScript&quot;in document?document.currentScript:function(){for(var t=document.getElementsByTagName(&quot;script&quot;),e=t.length;e--;)if(t[e].getAttribute(&quot;data-cfhash&quot;))return t[e]}();if(t&amp;&amp;t.previousSibling){var e,r,n,i,c=t.previousSibling,a=c.getAttribute(&quot;data-cfemail&quot;);if(a){for(e=&quot;&quot;,r=parseInt(a.substr(0,2),16),n=2;a.length-n;n+=2)i=parseInt(a.substr(n,2),16)^r,e+=String.fromCharCode(i);e=document.createTextNode(e),c.parentNode.replaceChild(e,c)}t.parentNode.removeChild(t);}}catch(u){}}()/* ]]&gt; */&lt;/script&gt;\nFormat settings, CABAC                   : Yes\nFormat settings, ReFrames                : 14 frames\nCodec ID                                 : V_MPEG4/ISO/AVC\nDuration                                 : 1h 19mn\nBit rate                                 : 1 718 Kbps\nWidth                                    : 694 pixels\nHeight                                   : 276 pixels\nDisplay aspect ratio                     : 2.25:1\nOriginal display aspect ratio            : 2.25:1\nFrame rate                               : 23.976 fps\nColor space                              : YUV\nChroma subsampling                       : 4:2:0\nBit depth                                : 8 bits\nScan type                                : Progressive\nBits/(Pixel*Frame)                       : 0.374\nStream size                              : 977 MiB (85%)\nWriting library                          : x264 core 130 r2273 b3065e6\nEncoding settings                        : cabac=1 / ref=14 / deblock=1:-3:-3 / analyse=0x3:0x133 / me=umh / subme=11 / psy=1 / psy_rd=1.00:0.00 / mixed_ref=1 / me_range=32 / chroma_me=1 / trellis=2 / 8x8dct=1 / cqm=0 / deadzone=21,11 / fast_pskip=1 / chroma_qp_offset=-2 / threads=3 / lookahead_threads=1 / sliced_threads=0 / nr=0 / decimate=1 / interlaced=0 / bluray_compat=0 / constrained_intra=0 / bframes=8 / b_pyramid=2 / b_adapt=2 / b_bias=0 / direct=3 / weightb=1 / open_gop=0 / weightp=2 / keyint=240 / keyint_min=24 / scenecut=40 / intra_refresh=0 / rc_lookahead=60 / rc=crf / mbtree=1 / crf=18.3 / qcomp=0.70 / qpmin=0 / qpmax=69 / qpstep=4 / ip_ratio=1.40 / aq=1:1.00\nLanguage                                 : Japanese\nDefault                                  : Yes\nForced                                   : No\nColor primaries                          : BT.601-6 525, BT.1358 525, BT.1700 NTSC, SMPTE 170M\nTransfer characteristics                 : BT.709-5, BT.1361\nMatrix coefficients                      : BT.601-6 525, BT.1358 525, BT.1700 NTSC, SMPTE 170M\n\nAudio\nID                                       : 2\nFormat                                   : AC-3\nFormat/Info                              : Audio Coding 3\nMode extension                           : CM (complete main)\nCodec ID                                 : A_AC3\nDuration                                 : 1h 19mn\nBit rate mode                            : Constant\nBit rate                                 : 256 Kbps\nChannel(s)                               : 2 channels\nChannel positions                        : Front: L R\nSampling rate                            : 48.0 KHz\nBit depth                                : 16 bits\nCompression mode                         : Lossy\nStream size                              : 146 MiB (13%)\nLanguage                                 : Japanese\nDefault                                  : Yes\nForced                                   : No\n\nText #1\nID                                       : 3\nFormat                                   : UTF-8\nCodec ID                                 : S_TEXT/UTF8\nCodec ID/Info                            : UTF-8 Plain Text\nLanguage                                 : English\nDefault                                  : Yes\nForced                                   : No\n\nText #2\nID                                       : 4\nFormat                                   : UTF-8\nCodec ID                                 : S_TEXT/UTF8\nCodec ID/Info                            : UTF-8 Plain Text\nLanguage                                 : Spanish\nDefault                                  : No\nForced                                   : No\n\nMenu\n00:00:00.000                             : en:Chapter 1\n00:04:30.770                             : en:Chapter 2\n00:09:31.070                             : en:Chapter 3\n00:14:30.911                             : en:Chapter 4\n00:19:31.211                             : en:Chapter 5\n00:24:30.969                             : en:Chapter 6\n00:29:31.770                             : en:Chapter 7\n00:34:31.069                             : en:Chapter 8\n00:39:30.868                             : en:Chapter 9\n00:44:31.168                             : en:Chapter 10\n00:49:30.968                             : en:Chapter 11\n00:54:30.767                             : en:Chapter 12\n00:59:31.109                             : en:Chapter 13\n01:04:30.908                             : en:Chapter 14\n01:09:31.167                             : en:Chapter 15\n01:14:31.008                             : en:Chapter 16","torrent":{"xt":"urn:btih:3fcb2a0d26bdf049e379e303fc53ab27acffa160","amp;dn":"Mikio+Naruse+-+Autumn+Has+Already+Started+%281960%29","amp;tr":["udp%3A%2F%2Ftracker.openbittorrent.com%3A80","udp%3A%2F%2Fopen.demonii.com%3A1337","udp%3A%2F%2Ftracker.coppersurfer.tk%3A6969","udp%3A%2F%2Fexodus.desync.com%3A6969"],"infoHash":"3fcb2a0d26bdf049e379e303fc53ab27acffa160","infoHashBuffer":{"type":"Buffer","data":[63,203,42,13,38,189,240,73,227,121,227,3,252,83,171,39,172,255,161,96]},"announce":[],"urlList":[]}}